<?xml version="1.0" encoding="UTF-8"?>
<svg viewBox="0 0 75.6 75.6" xmlns="http://www.w3.org/2000/svg">
<defs>
<style>.cls-1{fill:#ff0211;}.cls-2{fill:#ffffff}.cls-3{fill:#ffffff}</style>
</defs>
<path class="cls-3" d="m38.11,74.95l29.24-14.63c2.07-1.03,3.37-3.14,3.37-5.44V20.73c0-2.3-1.3-4.41-3.37-5.44L38.11.65c-1.73-.86-3.77-.86-5.49,0L3.37,15.28c-2.07,1.03-3.37,3.14-3.37,5.44v34.15c0,2.3,1.3,4.41,3.37,5.44l29.24,14.63c1.73.86,3.77.86,5.49,0Z"/>
<circle class="cls-2" cx="59.75" cy="21.14" r="15.85"/>
<path class="cls-1" d="m9.73,50.1l-3.1-1.56v-9.17c0-2.69,1.51-5.36,4.63-5.02,2.92.32,5.17,2.91,5.87,4.6,1.09-.96,2.09-1.16,3.53-.96,1.59.22,7.6,2.51,7.6,10.65v10.8l-3.4-1.71v-10.12c0-2.97-1.82-5.45-4.26-5.73-1.01-.12-1.88.69-1.91,2.44-.03,1.74,0,10.29,0,10.29l-3.12-1.56v-9.58c0-4.23-2.73-5.57-3.93-5.7-.67-.07-1.93.33-1.93,2.5v9.84Z"/>
</svg>
